<?xml version="1.0" encoding="utf-8"?><!-- Uploaded to: SVG Repo, www.svgrepo.com, Generator: SVG Repo Mixer Tools -->
<svg fill="#000000" width="800px" height="800px" viewBox="0 0 24 24" id="date-remove-alt" data-name="Flat Line" xmlns="http://www.w3.org/2000/svg" class="icon flat-line"><path id="secondary" d="M3,9V20a1,1,0,0,0,1,1H20a1,1,0,0,0,1-1V9Zm9,9a3,3,0,1,1,3-3A3,3,0,0,1,12,18Z" style="fill: rgb(44, 169, 188); stroke-width: 2;"></path><path id="primary" d="M20,21H4a1,1,0,0,1-1-1V9H21V20A1,1,0,0,1,20,21ZM21,5a1,1,0,0,0-1-1H4A1,1,0,0,0,3,5V9H21ZM16,3V6M8,3V6m4,6a3,3,0,1,0,3,3A3,3,0,0,0,12,12ZM9.88,17.12l4.24-4.24" style="fill: none; stroke: rgb(0, 0, 0); stroke-linecap: round; stroke-linejoin: round; stroke-width: 2;"></path></svg>